<?xml version="1.0" standalone="no"?>
<!DOCTYPE svg PUBLIC "-//W3C//DTD SVG 20010904//EN"
 "http://www.w3.org/TR/2001/REC-SVG-20010904/DTD/svg10.dtd">
<svg version="1.0" xmlns="http://www.w3.org/2000/svg"
 width="577.000000pt" height="433.000000pt" viewBox="0 0 577.000000 433.000000"
 preserveAspectRatio="xMidYMid meet">

<g transform="translate(0.000000,433.000000) scale(0.100000,-0.100000)"
fill="#000000" stroke="none">
<path d="M2844 3786 c-90 -40 -109 -176 -33 -240 39 -33 108 -35 157 -6 28 17
32 23 21 36 -10 13 -15 13 -37 -2 -39 -25 -92 -21 -119 11 -42 48 -33 55 72
55 l95 0 0 35 c0 51 -26 94 -65 111 -42 17 -51 17 -91 0z m71 -32 c14 -6 45
-53 45 -69 0 -3 -34 -5 -75 -5 -41 0 -75 2 -75 5 0 17 26 55 44 63 25 13 39
14 61 6z"/>
<path d="M2545 3760 c-66 -27 -92 -113 -57 -192 37 -85 138 -103 210 -36 26
25 27 34 6 42 -9 4 -22 -2 -32 -14 -10 -11 -34 -23 -54 -27 -32 -5 -41 -1 -69
26 -17 18 -28 36 -23 40 5 4 47 15 93 24 46 9 85 17 87 19 2 2 -1 20 -7 40
-18 69 -90 105 -154 78z m95 -57 c24 -31 19 -36 -45 -47 -22 -4 -48 -9 -57
-12 -26 -8 -24 40 2 66 29 29 74 26 100 -7z"/>
<path d="M3130 3766 c0 -2 -11 -59 -25 -126 -14 -68 -24 -124 -23 -126 2 -1
12 -4 23 -6 18 -3 22 7 36 80 21 108 36 125 109 120 49 -3 55 -1 55 16 0 29
-55 41 -100 22 -33 -14 -35 -14 -35 5 0 12 -7 19 -20 19 -11 0 -20 -2 -20 -4z"/>
<path d="M2242 3654 c-22 -22 -38 -31 -42 -24 -11 18 -41 0 -35 -21 18 -54 93
-223 101 -226 5 -1 15 1 22 6 11 6 6 26 -23 96 -23 56 -34 97 -31 112 7 27 59
57 85 48 18 -6 54 -70 82 -149 15 -41 34 -55 51 -38 15 15 -57 187 -90 213
-39 30 -78 25 -120 -17z"/>
<path d="M1924 3595 c-4 -9 -2 -21 4 -27 15 -15 44 -1 40 19 -4 23 -36 29 -44
8z"/>
<path d="M1953 3503 c-50 -34 -64 -55 -45 -67 5 -3 25 6 45 20 l36 24 51 -74
c27 -42 50 -79 50 -83 0 -4 -16 -18 -36 -31 -29 -19 -33 -26 -23 -38 13 -16 3
-21 132 64 59 40 66 47 53 60 -12 13 -18 12 -44 -7 -17 -11 -32 -21 -35 -21
-2 0 -33 43 -67 95 -34 52 -63 95 -64 94 0 0 -25 -16 -53 -36z"/>
<path d="M1791 3376 c-7 -8 -10 -20 -6 -26 3 -6 -3 -10 -15 -10 -32 0 -80 -56
-80 -92 0 -77 78 -158 152 -158 52 0 77 15 94 56 16 37 30 37 45 -3 13 -36
-13 -80 -54 -91 -37 -10 -51 -42 -17 -42 55 0 120 65 120 121 0 24 -25 67 -56
94 -6 6 -47 45 -91 88 -68 67 -81 76 -92 63z m83 -116 c25 -27 46 -55 46 -63
0 -28 -41 -67 -70 -67 -52 0 -135 96 -114 133 36 64 76 63 138 -3z"/>
<path d="M3637 3344 c-15 -16 -7 -53 14 -59 30 -10 58 19 43 43 -12 18 -45 28
-57 16z"/>
<path d="M1549 3101 c-21 -22 -29 -39 -29 -66 0 -31 -3 -36 -17 -31 -14 6 -32
-8 -33 -25 0 -4 50 -39 111 -80 89 -58 112 -70 120 -58 5 8 9 17 9 21 0 5 -36
32 -80 60 -75 50 -80 55 -80 89 0 40 24 69 57 69 11 0 55 -22 97 -50 42 -27
80 -50 85 -50 8 0 25 30 19 35 -2 1 -41 28 -88 59 -99 65 -128 70 -171 27z"/>
<path d="M4140 3023 c-107 -25 -197 -47 -199 -49 -3 -3 2 -11 10 -18 12 -12
43 -8 214 31 110 25 202 47 204 49 5 5 -20 34 -28 33 -3 -1 -94 -21 -201 -46z"/>
<path d="M1293 2828 c-21 -51 -38 -97 -38 -101 0 -9 300 -137 320 -137 19 0
96 193 82 202 -21 13 -24 10 -57 -69 -17 -43 -33 -79 -35 -81 -3 -4 -115 46
-115 51 0 2 11 32 25 66 14 34 23 66 20 71 -15 24 -32 5 -55 -55 -13 -36 -29
-65 -35 -65 -22 0 -95 36 -95 47 0 6 13 42 29 79 16 38 27 72 25 76 -15 24
-36 -2 -71 -84z"/>
<path d="M4197 2531 c3 -14 17 -20 53 -25 l48 -6 11 -51 c15 -69 16 -66 -29
-89 -26 -13 -40 -27 -40 -40 0 -11 5 -20 11 -20 13 0 329 173 329 180 -1 26
-29 35 -167 51 -200 24 -222 24 -216 0z m268 -50 c30 -8 30 -8 -34 -40 -66
-34 -80 -32 -81 11 0 9 -3 23 -6 31 -4 12 3 14 43 10 26 -3 62 -8 78 -12z"/>
<path d="M1314 2266 c-43 -19 -64 -53 -64 -104 0 -36 6 -50 33 -77 78 -78 221
-45 241 56 12 60 -28 149 -55 122 -7 -7 -5 -22 7 -45 10 -22 14 -46 10 -62 -8
-31 -43 -66 -68 -66 -16 0 -18 10 -18 95 l0 95 -27 0 c-16 -1 -42 -7 -59 -14z
m46 -106 c0 -38 -4 -70 -9 -70 -23 0 -63 47 -63 73 0 33 27 67 54 67 16 0 18
-9 18 -70z"/>
<path d="M4242 2208 c3 -22 8 -23 98 -26 112 -3 130 -15 130 -88 0 -41 2 -44
26 -44 26 0 26 2 21 45 -2 25 -12 54 -21 64 -20 22 -20 31 -1 31 8 0 15 9 15
20 0 19 -7 20 -136 20 -135 0 -135 0 -132 -22z"/>
<path d="M4215 1890 c-10 -55 -19 -103 -19 -107 -1 -4 7 -9 16 -11 12 -2 20 8
28 37 6 23 12 41 14 41 2 0 48 -9 101 -20 53 -11 103 -20 109 -20 18 0 39 122
23 132 -21 14 -27 9 -33 -32 -4 -22 -9 -42 -13 -44 -3 -2 -44 3 -91 13 l-85
16 3 48 c3 40 0 47 -16 47 -16 0 -21 -15 -37 -100z"/>
<path d="M1265 1950 c-10 -17 15 -90 35 -103 24 -14 26 -27 5 -27 -16 0 -19
-9 -10 -32 5 -12 27 -10 135 11 123 24 130 26 130 49 0 20 -4 23 -22 19 -80
-19 -151 -29 -172 -23 -29 7 -56 52 -56 91 0 18 -5 25 -19 25 -11 0 -23 -4
-26 -10z"/>
<path d="M4524 1825 c-8 -20 4 -35 27 -35 14 0 19 7 19 25 0 18 -5 25 -20 25
-11 0 -23 -7 -26 -15z"/>
<path d="M1500 1704 c-101 -46 -101 -47 -123 -76 -27 -36 -16 -91 28 -135 38
-38 87 -47 78 -13 -3 11 -11 20 -18 20 -21 0 -54 33 -60 62 -5 19 -1 32 14 47
12 12 24 21 29 21 4 0 15 -20 26 -45 22 -54 58 -85 98 -85 36 0 78 40 78 75 0
34 -25 82 -51 95 -15 9 -18 15 -9 24 10 13 4 47 -9 45 -3 0 -40 -16 -81 -35z
m65 -50 c8 -4 23 -20 31 -36 14 -27 14 -32 -1 -54 -20 -31 -40 -30 -69 1 -30
32 -42 75 -24 86 16 10 40 11 63 3z"/>
<path d="M4147 1638 c-26 -24 -51 -84 -41 -99 11 -18 32 -8 39 18 9 37 23 53
47 53 19 0 137 -46 151 -59 4 -5 0 -27 -9 -51 -14 -35 -15 -43 -3 -51 13 -8
32 19 52 75 2 5 16 5 35 -2 28 -9 32 -8 38 10 6 21 -9 38 -35 38 -13 0 -11 22
5 63 3 8 -2 17 -11 21 -12 4 -19 -3 -27 -24 -5 -17 -16 -30 -23 -30 -7 0 -45
14 -83 30 -85 36 -103 37 -135 8z"/>
<path d="M4010 1400 c-55 -81 -60 -94 -47 -107 13 -13 17 -10 36 21 13 20 25
36 27 36 3 0 45 -27 94 -60 49 -33 92 -60 95 -60 2 0 21 25 42 56 30 46 34 57
22 65 -14 9 -36 -10 -58 -49 -7 -13 -21 -8 -85 34 -42 27 -76 54 -76 60 0 6
10 24 21 38 20 25 20 29 6 43 -13 14 -21 6 -77 -77z"/>
<path d="M1570 1423 c-63 -25 -117 -48 -119 -50 -3 -2 2 -10 10 -17 12 -12 27
-8 102 24 48 21 87 36 87 33 0 -3 -26 -32 -57 -65 -32 -33 -62 -66 -66 -74
-16 -28 23 -26 110 6 l88 31 -69 -69 c-52 -54 -66 -73 -59 -86 7 -13 26 2 106
82 74 75 94 100 87 112 -8 13 -22 11 -101 -17 -103 -37 -103 -41 -11 60 43 47
49 70 21 74 -8 1 -66 -19 -129 -44z"/>
<path d="M1827 1256 c-3 -7 8 -25 24 -39 16 -14 29 -33 29 -42 0 -9 -28 -46
-62 -81 l-62 -64 -36 35 c-30 29 -39 33 -48 22 -9 -11 -4 -21 23 -47 l35 -34
-22 -23 c-21 -22 -21 -24 -5 -40 16 -16 18 -16 39 5 l22 22 23 -21 c14 -14 28
-19 39 -15 15 6 14 10 -9 34 l-27 28 55 54 c94 92 102 137 35 193 -36 30 -46
33 -53 13z"/>
<path d="M3870 1221 c-22 -11 -44 -36 -58 -64 -20 -38 -22 -49 -11 -69 25 -48
66 -51 146 -8 43 23 59 27 69 19 35 -29 -6 -89 -60 -89 -19 0 -39 -7 -46 -15
-10 -12 -8 -17 13 -26 34 -15 73 -4 108 30 51 52 50 126 -3 145 -22 8 -38 3
-91 -24 -37 -18 -72 -30 -81 -27 -49 19 19 114 74 102 36 -8 61 19 31 34 -28
16 -51 14 -91 -8z"/>
<path d="M4266 1214 c-8 -21 1 -34 24 -34 19 0 34 25 24 41 -9 15 -41 10 -48
-7z"/>
<path d="M2061 935 c-34 -52 -64 -95 -67 -95 -2 0 -23 12 -45 27 -34 22 -42
24 -50 12 -6 -10 -3 -18 13 -29 63 -43 65 -46 44 -69 -25 -28 -58 -27 -94 4
-23 20 -32 22 -40 12 -13 -15 -7 -25 32 -55 43 -33 100 -30 135 7 l28 30 28
-19 c16 -10 32 -17 37 -14 16 10 8 31 -17 44 -14 7 -25 17 -25 22 0 5 27 49
61 99 49 73 58 93 48 105 -6 8 -15 14 -19 14 -4 0 -36 -43 -69 -95z"/>
<path d="M3605 1012 c-43 -27 -61 -50 -47 -64 8 -8 18 -5 38 11 48 38 69 29
121 -51 51 -79 52 -72 -15 -118 -16 -11 -19 -19 -13 -29 8 -12 17 -10 52 13
l42 29 19 -26 c16 -22 22 -25 38 -15 18 11 18 13 2 41 -15 25 -15 29 -2 37 44
27 45 29 32 42 -10 10 -18 9 -41 -5 l-29 -17 -42 65 c-45 70 -82 105 -109 105
-9 0 -29 -8 -46 -18z"/>
<path d="M2270 902 c-45 -22 -80 -83 -80 -142 0 -135 167 -164 230 -41 40 80
17 156 -56 187 -43 18 -52 18 -94 -4z m91 -33 c69 -37 21 -189 -60 -189 -32 0
-71 39 -71 71 0 36 33 100 59 114 32 17 46 18 72 4z"/>
<path d="M2543 829 c-41 -12 -63 -44 -63 -89 0 -40 29 -74 108 -124 38 -24 43
-31 40 -59 -7 -69 -105 -70 -130 -1 -11 31 -23 39 -45 32 -16 -6 -1 -54 25
-81 33 -35 90 -51 129 -36 45 17 73 49 73 84 0 41 -22 70 -86 111 -67 43 -81
66 -60 100 33 49 107 37 135 -21 24 -51 51 -60 51 -17 0 70 -96 125 -177 101z"/>
<path d="M3122 818 c-15 -15 -16 -45 -1 -53 18 -12 59 4 59 23 0 20 -18 42
-35 42 -6 0 -16 -5 -23 -12z"/>
</g>
</svg>
