<?xml version="1.0" standalone="no"?>
<!DOCTYPE svg PUBLIC "-//W3C//DTD SVG 20010904//EN"
 "http://www.w3.org/TR/2001/REC-SVG-20010904/DTD/svg10.dtd">
<svg version="1.0" xmlns="http://www.w3.org/2000/svg"
 width="912.000000pt" height="912.000000pt" viewBox="0 0 912.000000 912.000000"
 preserveAspectRatio="xMidYMid meet">

<g transform="translate(0.000000,912.000000) scale(0.100000,-0.100000)"
fill="#000000" stroke="none">
<path d="M5600 6047 c-51 -14 -110 -55 -134 -92 -21 -32 -20 -117 2 -175 14
-38 25 -49 67 -70 44 -21 64 -25 155 -25 125 0 143 9 185 91 34 67 36 125 6
187 -33 69 -72 91 -161 94 -41 2 -95 -3 -120 -10z m55 -37 c7 -11 -35 -30 -66
-30 -28 0 -19 23 12 31 36 10 47 10 54 -1z m23 -97 c-4 -23 -68 -32 -68 -9 0
16 15 24 48 25 17 1 23 -4 20 -16z m127 -84 c0 -8 -10 -15 -22 -17 -25 -4 -33
22 -10 31 18 8 32 2 32 -14z m-65 -69 c0 -5 -11 -10 -25 -10 -14 0 -25 5 -25
10 0 6 11 10 25 10 14 0 25 -4 25 -10z"/>
<path d="M4680 5961 c-134 -19 -168 -36 -268 -134 -51 -50 -106 -112 -122
-137 -26 -41 -28 -50 -20 -81 15 -52 13 -436 -2 -445 -7 -5 -68 -11 -136 -15
-68 -4 -126 -10 -129 -12 -10 -10 -22 -84 -28 -181 l-8 -99 80 5 c43 3 107 14
141 23 51 14 68 16 89 6 29 -13 29 15 -3 -260 -14 -128 -15 -166 -6 -223 7
-38 12 -89 12 -114 0 -25 5 -77 12 -115 9 -59 9 -72 -3 -80 -21 -13 -60 -11
-128 7 -108 27 -107 28 -103 -106 2 -63 7 -118 10 -122 4 -4 111 -9 237 -12
127 -2 255 -9 285 -14 30 -6 93 -12 140 -13 l85 -4 11 45 c26 105 26 118 4
130 -12 6 -67 15 -123 20 -124 10 -202 27 -222 47 -12 12 -15 37 -13 116 1 56
-2 224 -7 373 -4 149 -5 282 -1 297 9 38 56 44 124 18 121 -48 238 -5 249 89
4 40 1 50 -30 91 l-36 46 -88 6 c-115 8 -188 30 -210 63 -13 21 -18 62 -23
212 -3 103 -3 196 1 208 14 42 77 76 198 106 98 26 129 29 201 25 47 -3 92 -8
101 -12 22 -8 33 -34 94 -213 29 -84 55 -156 59 -159 3 -3 12 0 21 7 12 10 25
10 59 1 25 -6 57 -11 72 -11 23 0 26 -3 21 -25 -8 -45 20 -67 99 -76 85 -10
162 -24 170 -31 10 -10 -34 -901 -46 -934 -7 -19 -19 -22 -105 -28 -131 -9
-135 -11 -135 -92 0 -78 1 -78 146 -93 99 -10 118 -16 95 -30 -19 -12 -182
-24 -215 -15 -36 9 -47 -9 -34 -50 15 -45 27 -54 88 -66 72 -14 667 -15 683
-2 17 14 4 225 -20 315 -20 80 -30 87 -127 87 -68 0 -94 15 -81 47 4 10 11 95
15 188 5 94 17 296 26 450 16 271 16 283 -2 370 l-19 90 -60 6 c-93 10 -341
10 -368 0 -13 -5 -28 -6 -34 -3 -6 4 -18 43 -28 87 -9 44 -27 98 -39 120 -36
66 -158 215 -176 215 -9 0 -34 9 -56 19 -57 28 -211 71 -269 75 -27 3 -75 1
-105 -3z m8 -50 c11 -6 10 -11 -3 -24 -29 -29 -136 -49 -150 -27 -6 10 45 40
90 51 42 10 48 10 63 0z m381 -66 c27 -26 23 -56 -7 -49 -35 10 -76 50 -69 68
9 22 42 13 76 -19z m-232 -1 c5 -16 -36 -25 -59 -13 -10 6 -16 15 -12 20 8 13
66 7 71 -7z m261 -236 c14 -14 16 -64 3 -72 -17 -11 -57 55 -45 75 7 13 28 11
42 -3z m60 -174 c-4 -23 -26 -30 -34 -10 -8 20 15 51 29 37 5 -5 7 -17 5 -27z
m280 -21 c-4 -23 -88 -32 -88 -10 0 22 10 27 52 27 32 0 39 -3 36 -17z m157
-53 c0 -12 -19 -15 -114 -15 -80 0 -116 4 -118 12 -5 14 48 20 157 19 60 -1
75 -4 75 -16z m208 -4 c6 -15 -22 -46 -42 -46 -24 0 -81 32 -81 46 0 20 116
20 123 0z m-56 -121 c3 -9 -2 -24 -12 -35 -16 -17 -16 -19 5 -30 30 -16 24
-56 -7 -52 -19 3 -23 -2 -23 -22 0 -30 -16 -42 -34 -27 -15 13 -18 -12 -36
-269 -6 -85 -17 -182 -25 -215 -8 -33 -15 -70 -17 -83 -2 -12 -7 -23 -13 -22
-25 1 -12 585 16 683 12 45 36 58 55 32 13 -17 14 -18 14 -1 0 31 20 56 46 56
13 0 27 -7 31 -15z m-1692 -131 c0 -21 -31 -32 -47 -16 -6 6 -3 15 8 26 20 21
39 16 39 -10z m149 -20 c22 -8 20 -31 -3 -44 -28 -14 -51 -12 -57 5 -14 36 17
56 60 39z m385 -39 c8 -8 -9 -35 -22 -35 -22 0 -51 26 -42 39 6 11 52 8 64 -4z
m-399 -70 c0 -8 -4 -15 -9 -15 -13 0 -22 16 -14 24 11 11 23 6 23 -9z m600
-10 c0 -18 -25 -32 -65 -36 -24 -3 -30 0 -30 16 0 12 9 22 25 26 43 12 70 10
70 -6z m-732 -27 c7 -7 12 -22 12 -35 0 -18 -6 -23 -24 -23 -28 0 -37 16 -25
48 9 25 19 28 37 10z m217 -8 c3 -5 -3 -10 -15 -10 -12 0 -18 5 -15 10 3 6 10
10 15 10 5 0 12 -4 15 -10z m95 -170 c0 -16 -4 -30 -10 -30 -11 0 -14 43 -3
53 11 12 13 8 13 -23z m1353 -143 c-2 -60 -21 -117 -39 -117 -20 0 -14 87 11
158 11 31 30 3 28 -41z m-1328 -102 c0 -77 -2 -90 -17 -93 -20 -4 -25 12 -32
116 l-5 73 27 -3 27 -3 0 -90z m1291 -140 c-4 -15 -12 -25 -19 -22 -17 5 -21
35 -6 53 17 21 33 2 25 -31z m-6 -60 c0 -8 -7 -15 -15 -15 -8 0 -15 7 -15 15
0 8 7 15 15 15 8 0 15 -7 15 -15z m290 -71 c0 -10 -7 -14 -22 -12 -32 5 -35
28 -4 28 17 0 26 -5 26 -16z m-1584 -78 c9 -36 1 -71 -16 -71 -16 0 -26 54
-16 81 8 22 25 17 32 -10z m1167 -25 c5 -5 6 -15 2 -21 -6 -9 -36 -11 -112 -7
-100 5 -140 17 -126 40 7 12 222 2 236 -12z m424 3 c8 -20 -20 -68 -42 -72 -9
-2 -22 2 -30 8 -19 16 -19 50 -1 50 8 0 16 7 20 15 7 20 45 19 53 -1z m-311
-15 c9 -16 -12 -33 -31 -25 -14 5 -15 9 -5 21 15 18 26 19 36 4z m-1453 -56
c18 -11 4 -23 -27 -23 -36 0 -52 12 -41 30 5 9 47 5 68 -7z m1511 -42 c9 -13
-19 -21 -75 -21 -37 0 -49 4 -49 15 0 12 13 15 59 15 33 0 62 -4 65 -9z m-944
-41 c0 -5 -16 -10 -36 -10 -21 0 -33 4 -29 10 3 6 19 10 36 10 16 0 29 -4 29
-10z m-544 -45 c51 -21 34 -38 -33 -33 -51 4 -79 21 -67 40 8 13 62 9 100 -7z
m132 -7 c18 -15 15 -28 -7 -28 -33 0 -51 11 -51 32 0 15 4 18 23 12 12 -3 28
-11 35 -16z m150 -14 c27 -8 29 -30 2 -39 -23 -7 -88 4 -96 16 -15 25 37 38
94 23z m280 -22 c2 -7 -3 -12 -12 -12 -9 0 -16 7 -16 16 0 17 22 14 28 -4z"/>
<path d="M5668 5164 c-5 -4 -8 -19 -8 -33 0 -18 3 -22 11 -14 6 6 9 21 7 33
-1 12 -6 18 -10 14z"/>
<path d="M2077 5722 c-56 -20 -67 -34 -67 -85 0 -21 -5 -47 -11 -59 -14 -26
-43 -21 -147 28 -65 30 -168 58 -399 109 -18 4 -23 1 -23 -15 0 -24 -35 -40
-85 -40 -39 0 -59 24 -44 52 14 25 -4 23 -38 -6 -15 -13 -59 -44 -98 -68 -80
-52 -167 -139 -213 -214 -31 -50 -32 -54 -30 -159 1 -102 3 -113 36 -178 26
-52 49 -81 99 -122 83 -68 300 -180 368 -189 99 -14 309 -67 339 -86 51 -31
175 -165 196 -211 25 -56 25 -70 -4 -150 -43 -121 -125 -221 -205 -248 -41
-13 -263 -15 -309 -2 -18 6 -112 63 -208 127 l-174 118 -44 85 c-24 47 -49
112 -55 144 -18 97 -21 101 -104 93 -40 -4 -82 -10 -94 -13 -27 -6 -33 -28
-58 -200 -16 -104 -17 -139 -7 -235 12 -133 16 -138 124 -163 81 -18 93 -13
114 48 6 18 18 33 28 35 9 2 39 -16 66 -41 27 -24 84 -61 127 -82 43 -21 110
-60 148 -85 55 -37 90 -52 161 -69 115 -27 259 -28 330 -4 47 17 48 17 20 23
-17 3 -30 10 -30 15 -1 15 56 18 65 4 11 -18 36 -5 152 81 127 95 198 188 221
290 20 88 21 209 1 257 -8 19 -15 48 -15 62 0 17 -12 39 -33 59 -40 38 -57 41
-57 7 0 -34 -16 -32 -91 16 -35 22 -88 55 -118 72 -30 18 -57 38 -59 46 -7 22
68 8 144 -28 37 -17 69 -29 72 -26 3 3 -15 24 -39 46 -46 43 -94 69 -128 69
-18 0 -106 39 -203 91 -20 10 -52 19 -70 19 -28 0 -23 -4 33 -23 97 -33 138
-64 109 -82 -13 -8 -223 43 -245 59 -24 18 -12 34 32 42 36 7 36 7 -35 25
-109 29 -177 63 -230 116 -82 83 -118 196 -92 293 26 99 79 131 224 134 52 1
81 6 84 14 9 27 100 8 131 -27 9 -11 57 -36 106 -56 50 -20 130 -57 178 -82
70 -36 92 -53 110 -84 26 -46 68 -64 134 -56 102 11 122 83 97 347 -11 122
-18 158 -31 168 -23 17 -98 14 -156 -6z m121 -27 c11 -10 11 -17 3 -34 -15
-27 -48 -27 -78 1 -25 24 -30 44 -10 51 18 7 70 -4 85 -18z m-734 -91 c25 -10
19 -32 -14 -49 -23 -12 -35 -13 -51 -5 -25 14 -21 31 12 47 28 15 32 15 53 7z
m-279 -103 c7 -12 -53 -81 -70 -81 -27 0 -25 20 6 54 31 36 52 45 64 27z m875
-27 c42 -17 54 -44 20 -44 -17 0 -74 23 -89 36 -5 5 10 24 19 24 5 0 28 -7 50
-16z m-143 -45 c46 -22 56 -39 23 -39 -26 0 -100 37 -100 50 0 16 30 12 77
-11z m-929 -102 c2 -27 -1 -37 -11 -37 -15 0 -27 28 -27 63 0 12 6 17 18 15
12 -2 18 -14 20 -41z m1222 -77 c0 -6 -27 -10 -60 -10 -33 0 -60 4 -60 10 0 6
27 10 60 10 33 0 60 -4 60 -10z m-1005 -170 c3 -5 -1 -10 -9 -10 -9 0 -16 5
-16 10 0 6 4 10 9 10 6 0 13 -4 16 -10z m-53 -56 c8 -18 8 -28 0 -36 -16 -16
-39 -3 -57 33 -14 25 -14 33 -4 40 18 11 48 -7 61 -37z m128 5 c0 -24 -26 -25
-39 -1 -7 13 -6 23 1 30 15 15 38 -3 38 -29z m140 -64 c49 -25 67 -55 33 -55
-29 1 -108 45 -111 63 -5 24 20 21 78 -8z m-140 -85 c0 -5 -4 -10 -9 -10 -6 0
-13 5 -16 10 -3 6 1 10 9 10 9 0 16 -4 16 -10z m340 -70 c10 -6 12 -12 4 -20
-12 -12 -74 6 -74 21 0 12 51 11 70 -1z m384 -242 c24 -22 30 -37 27 -65 -2
-23 -29 -14 -55 18 -47 56 -25 94 28 47z m-1242 -190 c5 -29 -5 -145 -14 -153
-4 -4 -12 -4 -19 0 -12 8 -9 141 5 163 11 19 23 14 28 -10z m1438 -52 c0 -27
-28 -43 -36 -21 -6 16 12 45 27 45 5 0 9 -11 9 -24z m-1174 -111 c32 -28 36
-36 25 -44 -25 -16 -91 27 -91 61 0 27 22 22 66 -17z m954 -47 c0 -16 -31 -48
-47 -48 -17 0 -17 10 3 38 16 23 44 30 44 10z m110 -83 c0 -25 -60 -85 -86
-85 -35 0 -30 14 24 59 51 44 62 49 62 26z m-743 -115 c22 0 40 -31 29 -49 -6
-9 -84 14 -100 29 -14 14 5 32 28 26 11 -3 31 -6 43 -6z m108 -90 c3 -5 -1
-10 -10 -10 -9 0 -13 5 -10 10 3 6 8 10 10 10 2 0 7 -4 10 -10z m279 -6 c9 -4
15 -12 13 -18 -5 -15 -195 -20 -232 -6 -24 9 -25 12 -14 27 12 13 29 15 115
10 56 -4 109 -10 118 -13z"/>
<path d="M6685 5551 l-170 -6 -77 -44 c-92 -53 -190 -147 -223 -216 -21 -42
-25 -67 -27 -165 l-3 -115 28 -3 c21 -3 33 3 48 22 15 20 30 26 57 26 69 0 79
8 93 63 6 29 21 70 32 92 39 79 55 93 125 115 61 20 75 20 162 10 207 -24 257
-47 317 -141 37 -59 87 -183 98 -241 9 -48 -6 -55 -69 -34 -35 12 -88 16 -207
16 -184 0 -239 -10 -364 -69 -107 -50 -168 -117 -240 -266 -67 -138 -79 -183
-73 -290 4 -77 9 -92 54 -180 64 -126 99 -168 130 -161 16 4 44 -4 82 -23 32
-16 84 -36 116 -44 32 -9 66 -23 75 -31 39 -36 174 -8 409 85 98 38 188 69
201 69 14 0 44 -19 75 -47 56 -51 162 -123 181 -123 17 0 173 139 180 161 4
13 -15 38 -74 95 -60 56 -90 95 -116 146 l-35 70 2 271 c1 239 -1 278 -16 317
-20 50 -33 90 -66 194 -19 64 -52 127 -119 231 -14 22 -57 71 -96 110 -67 68
-73 72 -145 88 -100 23 -145 25 -345 18z m35 -85 c0 -15 -74 -38 -96 -29 -20
7 -17 31 4 36 40 11 92 7 92 -7z m415 -6 c3 -5 2 -10 -4 -10 -5 0 -13 5 -16
10 -3 6 -2 10 4 10 5 0 13 -4 16 -10z m-715 -44 c0 -15 -55 -66 -71 -66 -18 0
-8 30 18 55 31 28 53 33 53 11z m385 -46 c0 -19 -45 -26 -56 -9 -12 20 0 30
29 27 16 -2 27 -9 27 -18z m-485 -260 c0 -11 -4 -20 -10 -20 -5 0 -10 9 -10
20 0 11 5 20 10 20 6 0 10 -9 10 -20z m1060 -351 c14 -26 6 -51 -14 -43 -28
11 -32 64 -6 64 5 0 14 -9 20 -21z m-930 -13 c0 -3 -4 -8 -10 -11 -5 -3 -10
-1 -10 4 0 6 5 11 10 11 6 0 10 -2 10 -4z m500 -43 c122 -27 196 -53 217 -75
16 -17 25 -46 33 -108 6 -47 18 -118 26 -159 19 -101 13 -108 -139 -181 -194
-93 -276 -123 -322 -117 -99 11 -303 136 -290 178 3 9 1 20 -6 24 -18 12 -37
67 -49 139 -13 81 -2 112 61 174 48 48 174 114 259 136 58 16 101 13 210 -11z
m444 -205 c9 -37 7 -98 -4 -98 -15 0 -30 45 -30 86 0 39 24 48 34 12z m-114
-94 c0 -8 -7 -14 -15 -14 -15 0 -21 21 -9 33 10 9 24 -2 24 -19z m260 -283
c15 -30 12 -53 -6 -49 -23 4 -39 32 -31 52 9 22 24 20 37 -3z m-91 -45 c8 -10
8 -16 -2 -24 -17 -14 -42 2 -34 22 8 20 21 20 36 2z m-359 -6 c0 -14 -55 -40
-84 -40 -39 0 -41 19 -4 35 38 16 88 20 88 5z m417 -66 c-9 -9 -28 6 -21 18 4
6 10 6 17 -1 6 -6 8 -13 4 -17z m-746 -17 c-5 -5 -18 -7 -28 -3 -14 6 -15 9
-4 16 19 11 46 1 32 -13z"/>
<path d="M3045 5310 c-251 -66 -375 -166 -490 -394 -44 -86 -55 -126 -35 -126
6 0 10 -5 10 -10 0 -6 -8 -10 -17 -8 -11 2 -23 -9 -34 -32 -25 -50 -99 -295
-99 -325 0 -14 13 -55 29 -92 16 -38 34 -87 40 -110 21 -78 172 -266 195 -243
14 14 53 11 115 -8 73 -23 78 -42 12 -42 -27 0 -62 5 -77 10 -39 15 -40 5 -3
-28 18 -16 78 -47 134 -68 l100 -39 200 0 200 0 65 31 c36 17 80 43 97 58 36
30 273 356 273 375 0 6 -4 11 -10 11 -5 0 -10 9 -10 20 0 22 26 28 32 8 7 -20
36 33 43 77 6 37 5 39 -9 21 -8 -10 -17 -24 -19 -30 -9 -24 -21 8 -22 56 0 59
17 73 39 31 16 -31 18 -29 35 52 12 53 3 179 -19 268 -9 35 -16 47 -30 47 -12
0 -27 18 -44 52 -33 65 -33 76 2 80 26 3 24 6 -53 84 -44 44 -102 95 -128 113
-46 31 -49 32 -61 15 -13 -17 -15 -17 -40 -1 -20 13 -26 25 -24 44 3 24 -5 30
-72 64 -125 63 -202 72 -325 39z m109 -40 c8 -8 7 -13 -3 -19 -16 -10 -146
-31 -192 -31 -21 0 -57 -19 -120 -65 -50 -36 -95 -65 -99 -65 -50 0 35 88 133
138 104 54 248 75 281 42z m167 10 c10 -6 19 -20 19 -30 0 -16 -7 -20 -34 -20
-38 0 -83 30 -72 48 9 15 61 16 87 2z m-126 -100 c0 -11 -24 -18 -101 -29
-109 -16 -148 -11 -123 14 31 32 224 44 224 15z m169 -31 c24 -22 17 -32 -15
-24 -34 9 -62 32 -54 45 9 14 44 3 69 -21z m-130 -50 c5 -5 8 -11 5 -13 -11
-11 -234 -56 -251 -50 -24 7 -23 31 1 44 11 5 55 16 98 24 77 14 129 12 147
-5z m-424 -12 c0 -7 -5 -18 -12 -25 -7 -7 -18 -12 -25 -12 -19 0 -16 27 5 39
23 14 32 13 32 -2z m749 -48 c26 -18 41 -36 37 -44 -3 -9 9 -22 30 -35 34 -22
43 -43 24 -55 -6 -4 -31 5 -56 20 -34 20 -45 32 -41 45 3 12 -7 29 -29 48 -62
55 -35 72 35 21z m-135 5 c20 -8 21 -44 2 -44 -18 0 -39 27 -31 40 7 12 8 12
29 4z m-68 -43 c21 -16 83 -72 136 -123 l97 -93 5 -197 c2 -113 0 -213 -5
-233 -25 -89 -187 -277 -279 -324 -65 -33 -165 -54 -233 -49 -77 6 -134 31
-248 106 -89 58 -94 64 -161 196 l-41 78 12 102 c22 182 37 235 84 296 23 30
59 80 79 110 55 80 103 127 140 135 55 13 169 22 274 24 97 1 102 0 140 -28z
m-606 -79 c0 -16 -32 -52 -46 -52 -17 0 -18 14 -4 41 10 18 50 27 50 11z
m-225 -672 c7 -19 15 -52 19 -72 6 -34 5 -38 -13 -38 -11 0 -27 10 -35 23 -18
27 -30 91 -22 113 10 26 38 11 51 -26z m1205 6 c0 -7 -6 -19 -14 -25 -19 -16
-32 5 -16 24 16 19 30 19 30 1z m-1105 -186 c11 -17 -5 -32 -21 -19 -8 6 -14
15 -14 20 0 12 27 11 35 -1z m326 -141 c24 -13 16 -29 -16 -29 -34 0 -55 10
-55 26 0 17 43 19 71 3z m327 -66 c4 -26 -25 -38 -68 -28 -19 4 -30 13 -30 24
0 27 10 32 55 29 32 -2 41 -7 43 -25z m112 -13 c-19 -12 -40 -13 -40 0 0 5 8
13 18 19 22 13 44 -5 22 -19z"/>
<path d="M8427 3513 c-4 -3 -7 -36 -7 -73 0 -37 -2 -69 -5 -72 -3 -3 -27 6
-54 19 -43 22 -54 23 -89 14 -52 -14 -89 -58 -97 -115 -11 -69 2 -122 40 -161
28 -31 38 -35 81 -35 31 0 61 7 81 19 31 20 31 20 47 -2 28 -41 36 -2 36 195
0 206 -5 239 -33 211z m-34 -165 c26 -19 27 -23 27 -103 0 -80 -1 -84 -27
-103 -39 -26 -68 -32 -109 -21 -47 14 -74 58 -74 124 0 114 92 166 183 103z"/>
<path d="M8571 3506 c-8 -10 -7 -17 3 -26 17 -13 36 -6 36 15 0 19 -27 26 -39
11z"/>
<path d="M7637 3484 c-4 -4 -7 -24 -7 -45 0 -31 -4 -38 -22 -41 -29 -4 -30
-22 -2 -26 21 -3 22 -9 25 -128 4 -112 6 -127 24 -140 11 -8 33 -14 49 -12 37
4 48 28 13 28 -42 0 -48 19 -45 136 l3 109 28 3 c15 2 27 9 27 17 0 8 -12 15
-27 17 -24 3 -29 8 -33 42 -5 38 -19 54 -33 40z"/>
<path d="M7373 3403 c-36 -7 -73 -49 -73 -82 0 -36 35 -66 94 -81 87 -22 104
-38 92 -84 -11 -44 -99 -55 -151 -19 -25 17 -35 17 -35 -3 0 -37 125 -58 179
-29 33 16 41 33 41 80 0 41 -22 59 -100 82 -87 25 -109 54 -70 93 24 24 83 26
120 5 30 -17 40 -18 40 -5 0 26 -87 54 -137 43z"/>
<path d="M8795 3396 c-77 -34 -112 -128 -80 -211 21 -56 63 -87 124 -92 94 -8
167 70 158 170 -9 103 -115 173 -202 133z m101 -31 c72 -30 87 -161 25 -217
-36 -32 -93 -38 -129 -12 -77 54 -65 201 19 231 44 15 44 15 85 -2z"/>
<path d="M7827 3394 c-4 -4 -7 -59 -7 -121 0 -118 12 -164 45 -177 30 -11 84
-6 121 11 34 17 36 17 49 -1 28 -37 35 -7 35 145 0 138 -1 150 -17 147 -16 -3
-18 -18 -21 -120 -3 -113 -4 -118 -29 -138 -32 -25 -104 -28 -124 -4 -10 12
-16 56 -19 137 -5 111 -13 141 -33 121z"/>
<path d="M8572 3253 c2 -106 6 -147 16 -151 9 -3 12 31 12 147 0 129 -2 151
-15 151 -13 0 -15 -21 -13 -147z"/>
</g>
</svg>
